<?xml version="1.0" ?><svg data-name="Layer 1" id="Layer_1" viewBox="0 0 128 128" xmlns="http://www.w3.org/2000/svg"><defs><style>.cls-1{fill:#bde5ec;}.cls-2{fill:#e44450;}.cls-3{fill:#2652e4;}.cls-4{fill:#892e1d;}.cls-5{fill:#ffc298;}.cls-6{fill:#fff;}.cls-7{fill:none;}</style></defs><title/><rect class="cls-1" height="73.87" width="94" x="18" y="54.13"/><polygon class="cls-1" points="128 58.84 0.3 58.84 65 0 128 58.84"/><path class="cls-2" d="M33.58,67.93V53.43c0-.49.45-.73,1.36-.73h.79c.91,0,1.36.24,1.36.73V59h6.12V53.43c0-.49.45-.73,1.36-.73h.79c.91,0,1.36.24,1.36.73v14.5c0,.48-.45.72-1.36.72h-.79c-.91,0-1.36-.24-1.36-.72V62H37.09v5.92c0,.48-.45.72-1.36.72h-.79C34,68.65,33.58,68.41,33.58,67.93Z"/><path class="cls-2" d="M51.19,66.69a8.66,8.66,0,0,1-1.88-6,8.69,8.69,0,0,1,1.88-6,6.85,6.85,0,0,1,5.39-2.1A6.83,6.83,0,0,1,62,54.66a8.74,8.74,0,0,1,1.87,6,8.71,8.71,0,0,1-1.87,6,6.83,6.83,0,0,1-5.38,2.1A6.85,6.85,0,0,1,51.19,66.69Zm2.64-2.18a3.53,3.53,0,0,0,5.49,0,6.62,6.62,0,0,0,.93-3.83,6.55,6.55,0,0,0-.93-3.82,3.55,3.55,0,0,0-5.49,0,6.47,6.47,0,0,0-.94,3.82A6.54,6.54,0,0,0,53.83,64.51Z"/><path class="cls-2" d="M66.41,67.93V53.43c0-.49.46-.73,1.36-.73H69a1.49,1.49,0,0,1,1.43.61l4,7.09,4-7.09a1.49,1.49,0,0,1,1.43-.61H81c.9,0,1.36.24,1.36.73v14.5c0,.48-.46.72-1.36.72h-.66c-.91,0-1.36-.24-1.36-.72V58.55l-.09,0-3.28,5.87a1.07,1.07,0,0,1-.91.43h-.66a1,1,0,0,1-.9-.43l-3.29-5.87-.09,0v9.38c0,.48-.45.72-1.36.72h-.66C66.87,68.65,66.41,68.41,66.41,67.93Z"/><path class="cls-2" d="M85.51,67.7V53.65a.8.8,0,0,1,.91-.9h8.29c.46,0,.68.37.68,1.13v.7c0,.76-.22,1.13-.68,1.13H89V59h5.1c.46,0,.68.38.68,1.13v.7c0,.76-.22,1.14-.68,1.14H89v3.67h5.74c.45,0,.68.38.68,1.13v.7c0,.76-.23,1.14-.68,1.14H86.42A.81.81,0,0,1,85.51,67.7Z"/><path class="cls-3" d="M37.07,48.45a.63.63,0,0,1,0-.16l.59-3.12H36.8c-.4,0-.6-.34-.6-1V44c0-.67.2-1,.6-1h1.28l.43-2.23h-1c-.4,0-.6-.33-.6-1v-.2q0-1,.6-1h1.38l.53-2.87c.08-.42.46-.63,1.13-.63h.27c.6,0,.91.15.91.44a.78.78,0,0,1,0,.19l-.53,2.87h1.9l.53-2.87q.12-.63,1.14-.63H45c.61,0,.91.15.91.44a.78.78,0,0,1,0,.19l-.53,2.87h.67c.41,0,.61.34.61,1v.2c0,.68-.2,1-.61,1H45l-.43,2.23h.85c.41,0,.61.34.61,1v.21c0,.67-.2,1-.61,1H44.16l-.59,3.12q-.12.63-1.11.63h-.27c-.62,0-.93-.16-.93-.47a.63.63,0,0,1,0-.16l.59-3.12H40l-.58,3.12c-.08.42-.46.63-1.12.63H38C37.38,48.92,37.07,48.76,37.07,48.45Zm3.3-5.51h1.9l.43-2.23H40.8Z"/><path class="cls-3" d="M47.3,47.26a2.14,2.14,0,0,1,.46-1.14c.31-.44.58-.67.79-.67a1.64,1.64,0,0,1,.53.23,5,5,0,0,0,2.45.7c1.27,0,1.91-.49,1.91-1.47a1.34,1.34,0,0,0-.61-1.1A6.35,6.35,0,0,0,51.36,43a17.27,17.27,0,0,1-1.71-.77,3.87,3.87,0,0,1-1.46-1.34,4,4,0,0,1-.61-2.28,3.79,3.79,0,0,1,.73-2.34,4.75,4.75,0,0,1,4.07-1.77A6.66,6.66,0,0,1,55,35c.7.3,1.05.62,1.05,1a2.31,2.31,0,0,1-.39,1.11c-.25.44-.5.65-.72.65a1,1,0,0,1-.37-.14,4.55,4.55,0,0,0-1.87-.36,2.28,2.28,0,0,0-1.48.36,1.17,1.17,0,0,0-.42.91,1.23,1.23,0,0,0,.61,1,6.86,6.86,0,0,0,1.46.75,14.2,14.2,0,0,1,1.71.76A4,4,0,0,1,56,42.31a3.9,3.9,0,0,1,.61,2.18,5.46,5.46,0,0,1-.4,2.17,3.37,3.37,0,0,1-1.08,1.41,5.49,5.49,0,0,1-3.28,1,8,8,0,0,1-3.26-.59C47.74,48.06,47.3,47.66,47.3,47.26Z"/><path class="cls-3" d="M61,48.27V37.35H57.75c-.4,0-.61-.34-.61-1v-.63c0-.68.21-1,.61-1h9.58c.41,0,.61.33.61,1v.63c0,.67-.2,1-.61,1H64.11V48.27c0,.43-.4.65-1.21.65h-.71C61.38,48.92,61,48.7,61,48.27Z"/><path class="cls-3" d="M68.1,48.47a2.24,2.24,0,0,1,.08-.36l4.46-13c.11-.28.49-.42,1.15-.42h1.06c.66,0,1,.14,1.15.42l4.46,13a1.23,1.23,0,0,1,.06.36c0,.3-.34.45-1,.45h-.89c-.67,0-1-.15-1.14-.43L76.67,46H71.89l-.81,2.47c-.09.28-.41.43-.93.43h-.81C68.51,48.92,68.1,48.77,68.1,48.47Zm4.66-5.12h3l-1.15-3.61-.31-1.3h-.08a10.57,10.57,0,0,1-.3,1.3Z"/><path class="cls-3" d="M84.63,48.27v-6.2l-4-6.5a1.25,1.25,0,0,1-.2-.51c0-.27.43-.4,1.29-.4h.88c.66,0,1.06.12,1.21.38l2.47,4.34L88.74,35c.15-.26.56-.38,1.22-.38h.73c.85,0,1.27.13,1.27.4a1.08,1.08,0,0,1-.18.51l-4,6.56v6.14c0,.43-.4.65-1.21.65h-.69C85,48.92,84.63,48.7,84.63,48.27Z"/><rect class="cls-4" height="38" width="20" x="54" y="86"/><rect class="cls-5" height="5" width="30" x="49" y="123"/><circle class="cls-5" cx="59" cy="105" r="2"/><rect class="cls-6" height="21" width="14" x="85" y="86"/><rect class="cls-6" height="21" width="14" x="29" y="86"/><rect class="cls-7" height="128" width="128"/></svg>